<?xml version="1.0" encoding="UTF-8"?>
<svg version="1.1" xmlns="http://www.w3.org/2000/svg" width="512" height="512">
<path d="M0 0 C18.27230381 7.73189413 37.91640342 15.79385067 57.75537109 8.89477539 C62.84690384 7.36644223 67.26972488 7.32968666 72.03271484 9.71118164 C74.80439334 13.17577976 75.36020714 15.90031365 75.03271484 20.21118164 C72.89957662 31.54609257 68.17997813 42.13046416 61.03271484 51.21118164 C62.27408203 51.16477539 63.51544922 51.11836914 64.79443359 51.07055664 C66.43633655 51.03302743 68.07826561 50.9966285 69.72021484 50.96118164 C70.53683594 50.92766602 71.35345703 50.89415039 72.19482422 50.85961914 C76.33563491 50.79256148 78.46020334 50.8527139 82.05224609 53.10180664 C85.09078047 56.33811544 85.34670077 58.57940334 85.28271484 63.01342773 C84.85760674 66.7505597 83.29492523 69.74256168 81.53271484 73.02368164 C81.17105225 73.71727783 80.80938965 74.41087402 80.43676758 75.12548828 C71.17878295 92.45587381 58.38047198 104.91738189 40.03271484 112.21118164 C40.41943359 113.12254883 40.80615234 114.03391602 41.20458984 114.97290039 C44.85480906 123.94322005 47.142277 132.57623284 48.38720703 142.20214844 C49.1411812 147.65177156 49.1411812 147.65177156 52.97021484 151.44555664 C53.98083984 152.02821289 54.99146484 152.61086914 56.03271484 153.21118164 C59.95692851 158.55864261 59.37991712 164.23903977 59.22021484 170.58618164 C59.20667969 171.6084082 59.19314453 172.63063477 59.17919922 173.68383789 C59.14401701 176.19350213 59.09479023 178.70206254 59.03271484 181.21118164 C59.66250244 181.19023437 60.29229004 181.16928711 60.94116211 181.14770508 C63.82568056 181.06398065 66.70994252 181.01234543 69.59521484 180.96118164 C70.58585937 180.92766602 71.57650391 180.89415039 72.59716797 180.85961914 C79.92759566 180.76220482 84.25176823 181.743901 89.77490234 186.80883789 C93.8210375 192.04090922 94.20971708 195.95767916 94.27099609 202.38696289 C94.27906784 203.18974167 94.28713959 203.99252045 94.29545593 204.81962585 C94.30927935 206.51840059 94.32000929 208.21720289 94.32788086 209.91601562 C94.34508319 212.50387672 94.38898177 215.09045623 94.43310547 217.67797852 C94.44323407 219.33096394 94.45174965 220.9839602 94.45849609 222.63696289 C94.48475822 223.79038933 94.48475822 223.79038933 94.5115509 224.96711731 C94.4875947 230.94994146 92.66871488 234.49784175 88.43505859 238.85571289 C84.13487695 242.28439106 81.35609523 243.34021852 75.92724609 243.30883789 C74.94433594 243.30561523 73.96142578 243.30239258 72.94873047 243.29907227 C71.41249023 243.28650391 71.41249023 243.28650391 69.84521484 243.27368164 C68.29157227 243.26691406 68.29157227 243.26691406 66.70654297 243.26000977 C64.14854218 243.24822174 61.59065751 243.23176679 59.03271484 243.21118164 C59.08492188 245.03842773 59.08492188 245.03842773 59.13818359 246.90258789 C59.16633996 248.52627192 59.19363813 250.14997099 59.22021484 251.77368164 C59.25791992 252.97347656 59.25791992 252.97347656 59.29638672 254.19750977 C59.37746056 260.81853976 58.25564741 265.66630711 53.76708984 270.80493164 C50.66957066 273.53074852 47.51987863 276.15360303 44.28271484 278.71118164 C43.64309814 279.2202002 43.00348145 279.72921875 42.34448242 280.25366211 C36.45412629 284.92138438 30.4857257 289.48687356 24.49267578 294.02172852 C23.80850586 294.54057617 23.12433594 295.05942383 22.41943359 295.59399414 C21.81317139 296.05177246 21.20690918 296.50955078 20.58227539 296.98120117 C18.89664309 298.2711045 18.89664309 298.2711045 17.03271484 300.21118164 C20.49771484 301.69618164 20.49771484 301.69618164 24.03271484 303.21118164 C24.72494141 302.60532227 25.41716797 301.99946289 26.13037109 301.37524414 C37.22818061 291.8711912 49.24242238 284.21610639 61.72021484 276.64868164 C63.01282227 275.86098389 63.01282227 275.86098389 64.33154297 275.05737305 C65.14429688 274.57059082 65.95705078 274.08380859 66.79443359 273.58227539 C67.51590576 273.14842529 68.23737793 272.7145752 68.98071289 272.26757812 C73.2565667 270.06631466 77.25751143 269.81324802 82.03271484 270.21118164 C87.27491315 272.01410592 91.06725318 274.42082049 94.03271484 279.21118164 C95.78614085 283.57511013 96.20735275 286.88755658 95.86865234 291.56274414 C95.79904297 292.74352539 95.72943359 293.92430664 95.65771484 295.14086914 C95.49048573 297.61272448 95.31595641 300.08409633 95.13427734 302.55493164 C95.06724609 303.73313477 95.00021484 304.91133789 94.93115234 306.12524414 C94.81779541 307.73326904 94.81779541 307.73326904 94.70214844 309.3737793 C95.12162555 312.9743428 96.25884377 313.97353763 99.03271484 316.21118164 C100.76765674 317.48199895 102.51950279 318.72988831 104.28271484 319.96118164 C140.14651932 346.67292857 157.75829252 387.87484404 164.40771484 431.02368164 C165.51496405 438.79753961 166.40719579 446.54202559 166.53271484 454.39868164 C166.55124512 455.08615479 166.56977539 455.77362793 166.58886719 456.48193359 C166.50899416 462.76762728 164.0925464 467.62964602 160.24365234 472.45336914 C153.68574448 478.28572124 147.83311885 479.0392881 139.26318359 479.44555664 C128.00695654 479.67768686 128.00695654 479.67768686 118.90771484 485.52368164 C117.94091797 486.72831055 117.94091797 486.72831055 116.95458984 487.95727539 C111.04423765 494.88872502 99.60519333 497.70883209 90.8454895 498.49850464 C87.3641916 498.62082094 83.89504566 498.65330169 80.41162109 498.64477539 C79.14930161 498.65001724 77.88698212 498.65525909 76.58641052 498.66065979 C73.93805984 498.66704575 71.29058358 498.66725007 68.64233398 498.65722656 C65.25386463 498.64564783 61.86642377 498.66611971 58.47808933 498.6951437 C55.22676086 498.71788472 51.97551048 498.71104366 48.72412109 498.70727539 C47.51059464 498.71850937 46.29706818 498.72974335 45.04676819 498.74131775 C43.92137131 498.7319368 42.79597443 498.72255585 41.63647461 498.71289062 C40.64817154 498.71272446 39.65986847 498.71255829 38.64161682 498.71238708 C35.29421636 498.06930607 34.08217365 496.88970046 32.03271484 494.21118164 C32.03271484 493.22118164 32.03271484 492.23118164 32.03271484 491.21118164 C25.76271484 491.21118164 19.49271484 491.21118164 13.03271484 491.21118164 C12.37271484 492.86118164 11.71271484 494.51118164 11.03271484 496.21118164 C8.47446405 498.76943243 6.80093881 498.45721713 3.31263226 498.48799264 C2.50633541 498.48489544 1.70003856 498.48179824 0.86930847 498.47860718 C0.01514243 498.48313829 -0.83902361 498.4876694 -1.71907347 498.49233782 C-4.59849563 498.50505834 -7.47773048 498.50335649 -10.35717773 498.50170898 C-12.4151738 498.50768988 -14.47316761 498.5144944 -16.53115845 498.52206421 C-22.13711792 498.53978629 -27.7430164 498.54442248 -33.34900117 498.54569578 C-38.03024114 498.54759258 -42.71146684 498.55494844 -47.39270133 498.56203997 C-58.44613437 498.57834868 -69.49953483 498.58320705 -80.55297852 498.58178711 C-91.94085147 498.58058824 -103.32853411 498.6016335 -114.71635896 498.63327444 C-124.4974223 498.65947899 -134.27842371 498.6701525 -144.05952185 498.66887629 C-149.89894421 498.66836745 -155.73819791 498.67400642 -161.57758522 498.69523239 C-167.07941804 498.71468243 -172.58092269 498.71469295 -178.08276749 498.70019913 C-180.09462275 498.6981176 -182.10649889 498.70277246 -184.11831856 498.71492004 C-198.31982057 498.79506393 -212.06260102 498.04191351 -223.96728516 489.21118164 C-225.12028832 487.86974864 -226.25763816 486.51474743 -227.38134766 485.14868164 C-232.65419909 479.78098375 -238.3130579 479.81321712 -245.52978516 479.46118164 C-261.24445581 478.49334131 -261.24445581 478.49334131 -267.89306641 472.46508789 C-268.35068359 471.90692383 -268.80830078 471.34875977 -269.27978516 470.77368164 C-269.75029297 470.2180957 -270.22080078 469.66250977 -270.70556641 469.09008789 C-279.13446735 456.53807131 -273.0663672 433.32547614 -270.44726562 419.45776367 C-266.55911936 400.38534647 -260.32853982 382.28388569 -250.96728516 365.21118164 C-250.64695312 364.62272461 -250.32662109 364.03426758 -249.99658203 363.42797852 C-244.13185115 352.74622022 -244.13185115 352.74622022 -239.96728516 349.21118164 C-237.64696711 348.79683913 -235.31089431 348.46228262 -232.96728516 348.21118164 C-229.10930967 346.78693917 -226.96224769 344.26165143 -224.27978516 341.21118164 C-223.49216797 340.32430664 -222.70455078 339.43743164 -221.89306641 338.52368164 C-219.95310267 336.37341313 -219.95310267 336.37341313 -218.96728516 334.21118164 C-219.17353516 333.46868164 -219.37978516 332.72618164 -219.59228516 331.96118164 C-220.11782549 328.10721918 -219.00628864 326.49989694 -216.96728516 323.21118164 C-214.76392575 321.44627411 -212.71205142 319.94616618 -210.34228516 318.46118164 C-206.00987972 315.9677874 -206.00987972 315.9677874 -202.96728516 312.21118164 C-202.98676976 310.26970593 -203.0738805 308.32873277 -203.19384766 306.39086914 C-203.25572266 305.21524414 -203.31759766 304.03961914 -203.38134766 302.82836914 C-203.52068142 300.356485 -203.66895081 297.88508645 -203.82666016 295.41430664 C-204.53822516 281.21394422 -204.53822516 281.21394422 -199.61865234 275.69946289 C-195.58534494 272.09709748 -191.98224353 270.40127205 -186.65478516 269.89868164 C-177.71881026 270.65596765 -170.67873271 275.58041911 -163.27978516 280.27368164 C-162.21703369 280.94254395 -161.15428223 281.61140625 -160.05932617 282.30053711 C-152.32922176 287.21835142 -145.08997384 292.45994233 -137.96728516 298.21118164 C-135.65772694 299.91622462 -133.32175076 301.56853122 -130.96728516 303.21118164 C-128.98728516 302.22118164 -127.00728516 301.23118164 -124.96728516 300.21118164 C-131.04146826 295.06727883 -137.15303785 289.99565453 -143.46728516 285.14868164 C-144.00240723 284.73730957 -144.5375293 284.3259375 -145.08886719 283.90209961 C-147.80402706 281.826761 -150.54014378 279.78818133 -153.31494141 277.79321289 C-154.37583984 277.02364258 -155.43673828 276.25407227 -156.52978516 275.46118164 C-157.47982422 274.78571289 -158.42986328 274.11024414 -159.40869141 273.41430664 C-163.35786793 270.01379434 -165.98481601 266.34988055 -166.96728516 261.21118164 C-167.04494599 259.77019734 -167.07524883 258.32609535 -167.06494141 256.88305664 C-167.06010742 255.68422852 -167.06010742 255.68422852 -167.05517578 254.46118164 C-167.04260742 253.22368164 -167.04260742 253.22368164 -167.02978516 251.96118164 C-167.02527344 251.12071289 -167.02076172 250.28024414 -167.01611328 249.41430664 C-167.00436476 247.34656763 -166.98643038 245.2788654 -166.96728516 243.21118164 C-167.63260254 243.23212891 -168.29791992 243.25307617 -168.98339844 243.2746582 C-172.01953817 243.35818773 -175.05543559 243.40995767 -178.09228516 243.46118164 C-179.13900391 243.49469727 -180.18572266 243.52821289 -181.26416016 243.56274414 C-187.53179502 243.64208129 -191.23055808 243.45370766 -195.96728516 239.21118164 C-201.14995872 234.06543925 -202.1316012 230.25753566 -202.17041016 223.13305664 C-202.17611023 222.32886292 -202.1818103 221.52466919 -202.18768311 220.69610596 C-202.19713816 218.9913464 -202.20366909 217.28656853 -202.20751953 215.58178711 C-202.21719541 212.9852662 -202.24820078 210.38954694 -202.27978516 207.79321289 C-202.28631835 206.1356655 -202.29156758 204.47811245 -202.29541016 202.82055664 C-202.30775696 202.04846863 -202.32010376 201.27638062 -202.33282471 200.480896 C-202.30972362 194.83198189 -201.20181016 190.63360988 -197.24853516 186.34790039 C-196.66072266 185.8696582 -196.07291016 185.39141602 -195.46728516 184.89868164 C-194.87947266 184.40754883 -194.29166016 183.91641602 -193.68603516 183.41040039 C-190.47196141 181.16785348 -187.65067055 181.0916245 -183.86181641 181.11352539 C-182.87890625 181.11674805 -181.89599609 181.1199707 -180.88330078 181.12329102 C-179.85914063 181.13166992 -178.83498047 181.14004883 -177.77978516 181.14868164 C-176.74402344 181.15319336 -175.70826172 181.15770508 -174.64111328 181.16235352 C-172.08311249 181.17414154 -169.52522782 181.19059649 -166.96728516 181.21118164 C-166.99870605 180.26650024 -166.99870605 180.26650024 -167.03076172 179.30273438 C-167.11448615 176.41821593 -167.16612137 173.53395396 -167.21728516 170.64868164 C-167.25080078 169.65803711 -167.28431641 168.66739258 -167.31884766 167.64672852 C-167.40384527 161.25065815 -166.92397191 157.33199562 -162.96728516 152.21118164 C-162.10103516 151.77547852 -161.23478516 151.33977539 -160.34228516 150.89086914 C-157.47826988 148.86533202 -157.45626049 148.12258982 -156.77978516 144.78149414 C-156.49205704 142.96899135 -156.22214731 141.15359714 -155.96728516 139.33618164 C-152.98115097 121.34911454 -145.86984085 106.08926525 -133.96728516 92.21118164 C-133.51095703 91.61047852 -133.05462891 91.00977539 -132.58447266 90.39086914 C-129.36544815 86.24661603 -125.52463064 83.1031972 -121.40478516 79.89868164 C-120.85024658 79.46555664 -120.29570801 79.03243164 -119.72436523 78.58618164 C-116.60491592 76.22506435 -113.67849919 74.46207501 -109.96728516 73.21118164 C-110.30501953 72.49833008 -110.64275391 71.78547852 -110.99072266 71.05102539 C-111.43673828 70.09325195 -111.88275391 69.13547852 -112.34228516 68.14868164 C-112.78314453 67.20895508 -113.22400391 66.26922852 -113.67822266 65.30102539 C-119.36003951 51.68188256 -118.51153358 35.7656278 -112.96728516 22.21118164 C-106.19356477 7.21088163 -94.00629884 -4.06593212 -78.72119141 -10.06225586 C-51.07700218 -19.60406903 -25.65436961 -10.86923495 0 0 Z " fill="#020202" transform="translate(309.96728515625,13.788818359375)"/>
<path d="M0 0 C1.99754782 -0.01816279 3.99508182 -0.0379065 5.99259949 -0.05912781 C10.16239575 -0.09326457 14.3308453 -0.09644723 18.50073242 -0.0793457 C22.71951466 -0.06533008 26.93312593 -0.09966915 31.15112305 -0.18188477 C55.43280367 -0.64983836 74.8812132 -0.58767791 96.01669312 12.46255493 C101.37398393 15.60604992 107.05846345 18.03600207 112.73046875 20.55078125 C114.73516604 21.461803 116.73915766 22.37438042 118.7421875 23.2890625 C120.17559953 23.93920289 121.60911644 24.58911246 123.04296875 25.23828125 C123.2284617 37.63397353 123.3705435 50.02933482 123.45746613 62.42613316 C123.49918874 68.18278136 123.55576472 73.93847898 123.64648438 79.69458008 C123.73351307 85.25137078 123.7812649 90.8072482 123.80198669 96.36466789 C123.81675021 98.4830456 123.84558144 100.6013742 123.8888092 102.71936226 C123.94703933 105.69103436 123.95487599 108.6589512 123.95117188 111.63110352 C123.97993408 112.50360748 124.00869629 113.37611145 124.03833008 114.27505493 C123.98731025 118.06713154 123.79768125 120.34065245 121.30610657 123.30404472 C119.28954173 125.08718894 117.23742899 126.68183423 115.04296875 128.23828125 C114.05554688 129.02332031 113.068125 129.80835938 112.05078125 130.6171875 C111.09945312 131.33777344 110.148125 132.05835938 109.16796875 132.80078125 C108.04386759 133.65702295 106.92019494 134.51382741 105.796875 135.37109375 C105.19762207 135.82774414 104.59836914 136.28439453 103.98095703 136.75488281 C100.34015855 139.54166684 96.72360737 142.3596799 93.10546875 145.17578125 C92.33412598 145.77592041 91.5627832 146.37605957 90.76806641 146.99438477 C85.62782669 150.99674607 80.50105337 155.01584033 75.38232422 159.0456543 C60.42600519 170.81120575 60.42600519 170.81120575 54.18261719 175.5300293 C52.00865956 177.20407166 52.00865956 177.20407166 50.08300781 179.17504883 C43.1134624 185.69089115 35.44699274 185.54378789 26.41796875 185.42578125 C25.27196701 185.42208023 25.27196701 185.42208023 24.10281372 185.41830444 C14.19310118 185.3199434 6.1682666 184.71395292 -1.15478516 177.42260742 C-2.21608887 176.28866757 -3.26240537 175.14051913 -4.29345703 173.97900391 C-7.33020331 170.80142818 -10.92358775 168.33200833 -14.45703125 165.73828125 C-15.89199557 164.65195891 -17.32431333 163.56213141 -18.75390625 162.46875 C-19.80481445 161.6651001 -19.80481445 161.6651001 -20.87695312 160.84521484 C-24.81836577 157.8003348 -28.69288764 154.67259004 -32.57202148 151.54907227 C-36.51838569 148.37590759 -40.49809107 145.25319554 -44.51953125 142.17578125 C-49.16599597 138.61922801 -53.79133226 135.03817902 -58.39453125 131.42578125 C-58.96179932 130.98161865 -59.52906738 130.53745605 -60.11352539 130.07983398 C-60.65871826 129.65130127 -61.20391113 129.22276855 -61.765625 128.78125 C-62.23798584 128.4102417 -62.71034668 128.0392334 -63.19702148 127.65698242 C-64.06822632 126.95472534 -64.06822632 126.95472534 -64.95703125 126.23828125 C-65.96928268 125.57748566 -66.98153412 124.91669006 -68.02445984 124.23587036 C-69.94194797 122.62073088 -70.83460625 121.68387052 -71.50360394 119.24892521 C-71.69605085 116.76687063 -71.69921628 114.34707407 -71.63818359 111.8581543 C-71.63905975 110.92108139 -71.63993591 109.98400848 -71.64083862 109.01853943 C-71.63666595 105.9281716 -71.59002821 102.83998752 -71.54296875 99.75 C-71.5317755 97.60481451 -71.52323592 95.45961367 -71.51724243 93.31440735 C-71.49435456 87.67350779 -71.43543055 82.03353804 -71.36901855 76.39300537 C-71.30759579 70.63517841 -71.28022736 64.87720091 -71.25 59.11914062 C-71.18568821 47.82511274 -71.08330831 36.53177437 -70.95703125 25.23828125 C-70.01085937 24.79548828 -69.0646875 24.35269531 -68.08984375 23.89648438 C-64.49543776 22.21367814 -60.90233466 20.52810478 -57.30957031 18.84179688 C-55.77019721 18.11971651 -54.23049637 17.3983343 -52.69042969 16.67773438 C-51.19546802 15.9781314 -49.70107939 15.27730262 -48.2072649 14.57525349 C-46.69536087 13.86592684 -45.18152134 13.1607124 -43.6658659 12.45943737 C-40.02045632 10.75746328 -36.47134714 8.99878518 -32.99848938 6.96540833 C-22.07701085 0.68571522 -12.4531703 -0.02131389 0 0 Z " fill="#EDE6E3" transform="translate(229.95703125,151.76171875)"/>
<path d="M0 0 C20.19094408 3.58301971 41.53943987 24.56551922 56 38 C56.67804688 38.61230469 57.35609375 39.22460938 58.0546875 39.85546875 C62.32301463 43.87523867 65.86797412 48.27505812 69.3125 53 C69.73337891 53.56936279 70.15425781 54.13872559 70.58789062 54.7253418 C75.42071187 61.54751881 78.21233318 68.58177634 77 77 C74.26420653 87.5413059 69.18467568 97.77531459 60 104 C55.85060834 106.34068248 51.66724235 106.66016915 47 106 C44.96509068 105.37762082 42.944423 104.70744036 40.9375 104 C36.42402461 102.41034829 32.83128235 101.22699482 28 102 C21.17341479 105.61407452 17.64040337 111.35010774 13.75 117.8125 C13.38648438 118.40998047 13.02296875 119.00746094 12.6484375 119.62304688 C11.76252004 121.08014796 10.88081727 122.5398102 10 124 C5.94725052 122.62508854 3.36616879 120.77577591 0.1875 117.9375 C-14.84487459 105.35319718 -33.63275808 98.20306853 -52 92 C-49.55109247 86.80961634 -47.03813251 81.92178452 -43.6875 77.25 C-41.70632101 74.37245211 -41.01581534 73.10873044 -40.5 69.5625 C-40.78259019 66.84500955 -40.78259019 66.84500955 -43 65 C-42.49178327 60.49589372 -39.44032932 57.88403909 -36.4375 54.75 C-35.65729492 53.91855469 -35.65729492 53.91855469 -34.86132812 53.0703125 C-33.58069015 51.70743172 -32.2911951 50.35288317 -31 49 C-30.484375 49.165 -29.96875 49.33 -29.4375 49.5 C-25.3683013 50.33470743 -21.84349228 50.9377432 -18.00244141 48.98388672 C-15.85805561 47.55514937 -13.83645652 46.03195964 -11.8125 44.4375 C-11.11447266 43.92380859 -10.41644531 43.41011719 -9.69726562 42.88085938 C-5.43105005 39.61320615 -1.45273471 36.34684749 0 31 C0.46132816 25.67348327 0.37766682 20.40222493 0.25 15.0625 C0.22990977 13.60093585 0.21166344 12.13934514 0.1953125 10.67773438 C0.15150336 7.11793226 0.08261546 3.55913746 0 0 Z " fill="#F5F1EF" transform="translate(122,300)"/>
<path d="M0 0 C-0.04713135 1.33792603 -0.04713135 1.33792603 -0.09521484 2.70288086 C-0.19824542 6.05224392 -0.2730534 9.39989434 -0.32958984 12.75024414 C-0.3595344 14.1925738 -0.40030733 15.63472494 -0.45263672 17.07641602 C-0.73299951 25.00628505 -0.95169161 31.77674156 4.27929688 38.2746582 C6.84786894 40.85015463 9.34217414 42.6781166 12.4375 44.625 C29.92211845 56.31589873 41.94838315 72.82720927 52 91 C48.59872437 93.26751709 45.15386129 94.35809526 41.3125 95.625 C25.15156766 101.15574565 10.32349267 109.20625791 -2.7109375 120.30078125 C-5.06449333 122.04787474 -7.24229138 123.04016149 -10 124 C-10.65226562 122.90300781 -11.30453125 121.80601562 -11.9765625 120.67578125 C-12.85881003 119.22101139 -13.74165436 117.76660335 -14.625 116.3125 C-15.05167969 115.59126953 -15.47835937 114.87003906 -15.91796875 114.12695312 C-19.11152742 108.90762963 -22.40118111 104.79940944 -28 102 C-33.17405258 101.3197905 -37.28807544 101.91165046 -42.0625 104 C-47.37191451 106.29773735 -51.35098099 107.16796252 -57.0625 105.33984375 C-67.41021583 100.81271808 -71.6667379 90.8005735 -76 81 C-78.18416188 74.03327675 -77.43917485 67.33979487 -74.50390625 60.72265625 C-65.53322028 44.48221958 -50.69577477 31.88743101 -36 21 C-35.44231934 20.58153809 -34.88463867 20.16307617 -34.31005859 19.73193359 C-27.22003841 14.42941777 -19.8909809 9.55322213 -12.375 4.875 C-11.60446289 4.38902344 -10.83392578 3.90304687 -10.04003906 3.40234375 C-9.31268555 2.95761719 -8.58533203 2.51289063 -7.8359375 2.0546875 C-7.19188965 1.65749512 -6.5478418 1.26030273 -5.88427734 0.85107422 C-4 0 -4 0 0 0 Z " fill="#F5F1EF" transform="translate(390,300)"/>
<path d="M0 0 C0.70455322 0.09087891 1.40910645 0.18175781 2.13500977 0.27539062 C31.88945298 3.98310941 62.36361459 5.31367422 92 0 C92.33 1.65 92.66 3.3 93 5 C86.55088785 10.5158713 79.88376779 15.66686931 73 20.625 C72.2582251 21.16995117 71.5164502 21.71490234 70.75219727 22.27636719 C70.05022217 22.77555664 69.34824707 23.27474609 68.625 23.7890625 C67.99851562 24.23975098 67.37203125 24.69043945 66.7265625 25.15478516 C65 26 65 26 62 25 C58 20.54285714 58 20.54285714 58 18 C53.4194766 16.21247867 49.90355928 15.39383136 45 16 C41.52924057 17.89382173 38.48445311 20.2558105 35.375 22.6875 C34.12589844 23.62625977 34.12589844 23.62625977 32.8515625 24.58398438 C25.14621413 29.86433824 25.14621413 29.86433824 20.30078125 37.39453125 C20.3304466 43.51548184 21.6165139 46.80754348 25.6875 51.40625 C27 53 27 53 27 55 C25.58911133 56.25830078 25.58911133 56.25830078 23.58203125 57.6953125 C22.45800903 58.50983887 22.45800903 58.50983887 21.3112793 59.34082031 C20.48668213 59.92959961 19.66208496 60.51837891 18.8125 61.125 C17.06390402 62.39157393 15.31655324 63.65986835 13.5703125 64.9296875 C12.65540039 65.59452148 11.74048828 66.25935547 10.79785156 66.94433594 C6.21114588 70.31432388 1.70163783 73.78376495 -2.8125 77.25 C-9.56995173 82.42713437 -16.34838954 87.53145271 -23.38623047 92.32250977 C-25.94973397 94.13808876 -28.18483491 96.08682043 -30.42651367 98.28515625 C-40.92964644 108.1439111 -49.8284205 109.53816221 -63.97851562 109.14257812 C-66.33991141 109.03401385 -68.70123961 108.92397026 -71.0625 108.8125 C-73.49007754 108.74714401 -75.91782633 108.6878545 -78.34570312 108.63476562 C-84.23426937 108.49299087 -90.1163119 108.2767596 -96 108 C-95.38125 107.69151123 -94.7625 107.38302246 -94.125 107.06518555 C-92.05123556 106.02568253 -90.01346172 104.96473493 -88 103.8125 C-87.01 103.26529297 -87.01 103.26529297 -86 102.70703125 C-82.64493053 99.84342704 -80.39329714 96.37707386 -79.67236328 92.01977539 C-79.56155708 89.88305404 -79.54911381 87.76444188 -79.5625 85.625 C-79.1227184 69.88049424 -73.48511479 56.64189489 -66 43 C-65.6390625 42.33178223 -65.278125 41.66356445 -64.90625 40.97509766 C-58.65133697 29.43422465 -58.65133697 29.43422465 -55 27 C-52.72265625 27.6796875 -52.72265625 27.6796875 -50.0625 28.875 C-40.09015484 32.71454945 -31.72287255 31.69833095 -21.98046875 27.54296875 C-12.27986506 22.52103106 -7.04520288 14.26801591 -2.32421875 4.70703125 C-1.88553467 3.82120361 -1.44685059 2.93537598 -0.99487305 2.02270508 C-0.66656494 1.3552124 -0.33825684 0.68771973 0 0 Z " fill="#EEE7E4" transform="translate(210,389)"/>
<path d="M0 0 C0.64066406 -0.02449219 1.28132813 -0.04898437 1.94140625 -0.07421875 C15.53868315 -0.1516226 28.59593897 5.53209154 40.881073 10.746521 C59.95773033 18.82740533 78.37023686 26.61366898 99.375 26.4375 C100.39722656 26.43298828 101.41945313 26.42847656 102.47265625 26.42382812 C104.98183194 26.412103 107.4908849 26.39569176 110 26.375 C108.7644819 30.54790182 107.28982535 33.78305802 104.75 37.3125 C104.13511719 38.17488281 103.52023437 39.03726563 102.88671875 39.92578125 C101.21403863 42.09714861 99.46096299 44.0293864 97.5625 46 C95.3523815 48.50638103 94.55414838 50.20810096 94.375 53.5625 C94.74345949 57.26404071 94.74345949 57.26404071 96.375 59.6875 C103.29572837 64.13653967 112.0123309 65.08421697 120 66.375 C115.45002992 79.02391682 105.06852427 89.2131681 93.125 94.9375 C89.29659564 96.63952555 87.23800852 97.375 83 97.375 C81.1328125 95.35546875 81.1328125 95.35546875 79.125 92.5625 C66.80865427 76.9309878 46.71515539 65.31798696 27 62.375 C26.99589111 61.82150879 26.99178223 61.26801758 26.98754883 60.69775391 C27.04059454 44.41059209 27.04059454 44.41059209 19.359375 30.55859375 C12.40212352 24.05575734 5.87915398 22.73588412 -3.48828125 22.96484375 C-11.21323313 23.86709063 -16.84636268 27.39775596 -21.74609375 33.3359375 C-25.75600335 39.85672508 -26.49742721 45.26932538 -26.6875 52.8125 C-26.72166016 53.73482422 -26.75582031 54.65714844 -26.79101562 55.60742188 C-26.87282994 57.86315951 -26.94219122 60.11854119 -27 62.375 C-28.9363704 62.87935694 -30.87414146 63.37833874 -32.8125 63.875 C-33.89144531 64.1534375 -34.97039062 64.431875 -36.08203125 64.71875 C-39 65.375 -39 65.375 -42 65.375 C-42.81604999 63.4598421 -43.62770632 61.54281166 -44.4375 59.625 C-44.88996094 58.55765625 -45.34242188 57.4903125 -45.80859375 56.390625 C-49.42189539 47.24482543 -48.70812624 38.44954225 -45.3203125 29.29296875 C-39.43452151 16.2850224 -29.13911882 7.59078168 -16 2.375 C-10.69164386 0.69145714 -5.57531046 0.01070117 0 0 Z " fill="#D77A7A" transform="translate(256,14.625)"/>
<path d="M0 0 C0.82823776 -0.0033284 1.65647552 -0.0066568 2.5098114 -0.01008606 C4.25189667 -0.01511817 5.99399146 -0.01749554 7.73608398 -0.01733398 C10.36914331 -0.01951668 13.00178037 -0.03770182 15.63476562 -0.05664062 C27.41848494 -0.09827748 38.21179569 0.33175481 49.07421875 5.35546875 C49.75718018 5.66661621 50.4401416 5.97776367 51.14379883 6.29833984 C70.5396646 15.3401589 84.93611271 30.12071566 93.07421875 49.98046875 C94.89728879 55.09258268 95.79906412 59.75659431 96.07421875 65.16796875 C91.92175046 64.5375119 88.61748433 63.14314346 84.85546875 61.296875 C83.67597656 60.72259766 82.49648438 60.14832031 81.28125 59.55664062 C80.04542706 58.94821284 78.80975124 58.33948614 77.57421875 57.73046875 C75.14836996 56.54172014 72.72078995 55.35659868 70.29296875 54.171875 C69.21982422 53.64408447 68.14667969 53.11629395 67.04101562 52.57250977 C66.06197266 52.10901123 65.08292969 51.6455127 64.07421875 51.16796875 C63.37611588 50.81793793 62.678013 50.4679071 61.95875549 50.10726929 C57.94391203 48.79990351 54.15438949 48.79966176 49.95483398 48.73461914 C49.04323013 48.71344528 48.13162628 48.69227142 47.19239807 48.67045593 C37.58480958 48.46387257 27.97435141 48.3793962 18.36499023 48.30297852 C13.83594047 48.2632592 9.30986295 48.18727778 4.78198242 48.07739258 C-22.14940075 47.43871673 -43.68480665 47.47633611 -66.92578125 62.16796875 C-70.03836008 63.93313755 -72.25774426 65.16796875 -75.92578125 65.16796875 C-75.28202243 46.82084226 -63.90749899 31.01704208 -50.97265625 18.828125 C-46.67483717 14.96309138 -41.9833439 11.94627636 -36.92578125 9.16796875 C-35.65927734 8.46220703 -35.65927734 8.46220703 -34.3671875 7.7421875 C-23.32421583 1.90198876 -12.3733446 0.0177148 0 0 Z " fill="#DBD1CC" transform="translate(245.92578125,89.83203125)"/>
<path d="M0 0 C3.55048649 1.42751029 4.91608898 2.96713307 6.8046875 6.26171875 C7.55214233 7.55795166 7.55214233 7.55795166 8.31469727 8.88037109 C8.82959717 9.80672363 9.34449707 10.73307617 9.875 11.6875 C10.40730225 12.63705566 10.93960449 13.58661133 11.48803711 14.56494141 C19.54666368 29.18624487 24.67490869 43.59940637 25.375 60.4375 C25.72604521 66.41201948 26.72402775 70.66934779 31 75 C33.28332538 76.69589267 35.39464219 77.76837631 38 79 C39.33474277 79.66384032 40.6684195 80.32983913 42 81 C41.05492584 81.00546844 41.05492584 81.00546844 40.09075928 81.01104736 C33.53685536 81.05283712 26.98365405 81.12215799 20.43017578 81.20751953 C17.98395818 81.23575635 15.53764888 81.25695731 13.09130859 81.27099609 C9.57601886 81.29238731 6.06183488 81.33902038 2.546875 81.390625 C0.9044986 81.39246796 0.9044986 81.39246796 -0.77105713 81.39434814 C-1.79181335 81.41406677 -2.81256958 81.4337854 -3.86425781 81.45410156 C-4.76138489 81.46298401 -5.65851196 81.47186646 -6.58282471 81.48101807 C-9.77675844 82.16677466 -10.97055716 83.49059781 -13 86 C-13.495 87.485 -13.495 87.485 -14 89 C-20.6 89 -27.2 89 -34 89 C-34.66 87.35 -35.32 85.7 -36 84 C-39.72246021 81.51835986 -41.68389561 81.72647984 -46.13354492 81.68115234 C-46.85574722 81.67110672 -47.57794952 81.6610611 -48.32203674 81.65071106 C-50.70817268 81.61983061 -53.09419617 81.60283066 -55.48046875 81.5859375 C-57.13528921 81.56722974 -58.7901001 81.54765662 -60.44490051 81.5272522 C-64.79973713 81.47588351 -69.15460469 81.43628322 -73.50958252 81.39910889 C-77.95373214 81.35909888 -82.39775251 81.30799286 -86.84179688 81.2578125 C-95.56110969 81.16099714 -104.28048637 81.0766104 -113 81 C-109.22048809 77.18039294 -105.22543506 73.976565 -100.9375 70.75 C-100.21755859 70.19570313 -99.49761719 69.64140625 -98.75585938 69.0703125 C-97.71461914 68.28527344 -97.71461914 68.28527344 -96.65234375 67.484375 C-96.02320068 67.00709961 -95.39405762 66.52982422 -94.74584961 66.03808594 C-93 65 -93 65 -90 65 C-88.24609375 66.93359375 -88.24609375 66.93359375 -86.4375 69.4375 C-84.17773471 72.75423221 -84.17773471 72.75423221 -81 75 C-72.94261284 76.17198359 -68.33410894 72.69701177 -62 68 C-52.30289254 61.32364294 -52.30289254 61.32364294 -47.4375 51.3125 C-47.57046985 46.58763782 -49.91740128 43.56345292 -52.6875 39.8828125 C-54 38 -54 38 -54 36 C-52.58911133 34.74169922 -52.58911133 34.74169922 -50.58203125 33.3046875 C-49.83179688 32.76102539 -49.0815625 32.21736328 -48.30859375 31.65722656 C-47.48488281 31.0690918 -46.66117187 30.48095703 -45.8125 29.875 C-44.07822398 28.61884686 -42.34519899 27.36096513 -40.61328125 26.1015625 C-39.7001416 25.43801758 -38.78700195 24.77447266 -37.84619141 24.09082031 C-32.09059494 19.86274275 -26.43593244 15.50122271 -20.76879883 11.15576172 C-19.92728271 10.5113916 -19.0857666 9.86702148 -18.21875 9.203125 C-17.47560547 8.63239258 -16.73246094 8.06166016 -15.96679688 7.47363281 C-12.63175327 4.97483401 -9.8658178 3.54864606 -5.875 2.4375 C-2.65831713 1.72262118 -2.65831713 1.72262118 0 0 Z " fill="#EEE7E4" transform="translate(356,416)"/>
<path d="M0 0 C1.95872924 1.13488901 3.73609735 2.33492017 5.53808594 3.70288086 C6.18608154 4.19224121 6.83407715 4.68160156 7.50170898 5.18579102 C8.18402588 5.7057666 8.86634277 6.22574219 9.56933594 6.76147461 C10.27550049 7.29434082 10.98166504 7.82720703 11.70922852 8.3762207 C15.02152739 10.87681737 18.32278441 13.3911582 21.61230469 15.92163086 C23.16884766 17.11079102 23.16884766 17.11079102 24.75683594 18.32397461 C25.66820312 19.02780273 26.57957031 19.73163086 27.51855469 20.45678711 C32.75306133 24.03196316 37.35111909 24.51712022 43.58886719 24.53491211 C44.81496956 24.54489731 44.81496956 24.54489731 46.06584167 24.55508423 C47.79134887 24.56518339 49.51689492 24.5699021 51.24243164 24.56958008 C53.86313334 24.57394347 56.48213603 24.61026291 59.10253906 24.64819336 C60.78547606 24.65406434 62.468421 24.65803185 64.15136719 24.65991211 C64.92559525 24.67428314 65.6998233 24.68865417 66.49751282 24.70346069 C74.04916042 24.64100857 79.62362166 21.64434725 85.47167969 16.99194336 C86.21740234 16.40477539 86.963125 15.81760742 87.73144531 15.21264648 C88.48232422 14.61000977 89.23320312 14.00737305 90.00683594 13.38647461 C94.53417969 9.80444336 94.53417969 9.80444336 96.78735352 8.02856445 C98.36720274 6.76191311 99.9258398 5.46851699 101.46655273 4.15454102 C102.24554932 3.50533691 103.0245459 2.85613281 103.82714844 2.18725586 C104.52340332 1.59082275 105.2196582 0.99438965 105.93701172 0.37988281 C108.06933594 -0.80102539 108.06933594 -0.80102539 110.66479492 -0.55029297 C112.9503363 0.1808992 114.96124534 1.05802071 117.06933594 2.19897461 C118.05933594 2.69397461 118.05933594 2.69397461 119.06933594 3.19897461 C117.63126186 6.46201579 115.8319556 8.68620148 113.38183594 11.26147461 C105.42411415 20.02943716 99.32329768 29.84033151 97.38183594 41.57397461 C97.18750977 42.67805664 97.18750977 42.67805664 96.98925781 43.80444336 C96.67424677 45.60117298 96.37060779 47.39989024 96.06933594 49.19897461 C70.82558187 53.08899573 45.40139391 53.75480652 20.06933594 50.19897461 C17.40348169 49.85886024 14.73641669 49.52938305 12.06933594 49.19897461 C11.93398437 48.19479492 11.79863281 47.19061523 11.65917969 46.15600586 C9.43857058 31.40455761 3.30350549 20.9847642 -6.57519531 9.97631836 C-8.49359354 7.71432641 -9.80644702 5.90879256 -10.93066406 3.19897461 C-9.52374799 2.47146673 -8.10460384 1.76757108 -6.68066406 1.07397461 C-5.89175781 0.67952148 -5.10285156 0.28506836 -4.29003906 -0.12133789 C-1.93066406 -0.80102539 -1.93066406 -0.80102539 0 0 Z " fill="#DAD0CB" transform="translate(201.9306640625,325.801025390625)"/>
<path d="M0 0 C20.28443952 4.30619386 38.48551062 13.28890426 54 27 C55.22569633 28.02499751 56.45419572 29.04666933 57.6875 30.0625 C58.8321875 31.0215625 58.8321875 31.0215625 60 32 C59.33124998 35.76430425 58.30605798 39.26164284 57.0625 42.875 C55.58544416 47.22560085 54.208709 51.56806699 53 56 C47.70103618 54.28071791 42.46918417 52.44406937 37.26757812 50.45019531 C21.77953313 44.54967859 6.37661955 41.34968889 -10 39 C-9.54648546 31.25920313 -8.24194604 24.1381174 -6.125 16.6875 C-5.86847656 15.73810547 -5.61195312 14.78871094 -5.34765625 13.81054688 C-3.98367221 8.89951892 -2.4907839 4.45208979 0 0 Z " fill="#F3F0EE" transform="translate(64,406)"/>
<path d="M0 0 C0.84375 1.61962891 0.84375 1.61962891 1.5 3.7265625 C1.7460498 4.50443115 1.99209961 5.2822998 2.24560547 6.08374023 C2.49455566 6.92235596 2.74350586 7.76097168 3 8.625 C3.26055176 9.47715088 3.52110352 10.32930176 3.78955078 11.20727539 C6.371566 19.86162847 9 28.9240327 9 38 C8.11183594 38.07476562 7.22367187 38.14953125 6.30859375 38.2265625 C-12.71782543 40.18488213 -30.57802247 45.63510986 -48.07495117 53.24731445 C-50.02921394 54.01142252 -51.95559324 54.53609993 -54 55 C-54.2475 54.0925 -54.495 53.185 -54.75 52.25 C-56.03140698 47.73280994 -57.57001165 43.30600387 -59.09765625 38.8671875 C-59.92103086 36.2509236 -60.52071604 33.6978252 -61 31 C-48.42351166 19.8232205 -18.25928094 -6.08642698 0 0 Z " fill="#F4F0EE" transform="translate(449,407)"/>
<path d="M0 0 C-0.0314209 0.89195068 -0.0628418 1.78390137 -0.09521484 2.70288086 C-0.19824542 6.05224392 -0.2730534 9.39989434 -0.32958984 12.75024414 C-0.3595344 14.1925738 -0.40030733 15.63472494 -0.45263672 17.07641602 C-0.73299951 25.00628505 -0.95169161 31.77674156 4.27929688 38.2746582 C6.84786894 40.85015463 9.34217414 42.6781166 12.4375 44.625 C29.92211845 56.31589873 41.94838315 72.82720927 52 91 C49.50321175 92.6645255 47.97578432 93.44736157 45.20703125 94.2890625 C44.49482422 94.50820313 43.78261719 94.72734375 43.04882812 94.953125 C42.31083984 95.17484375 41.57285156 95.3965625 40.8125 95.625 C40.06291016 95.85445313 39.31332031 96.08390625 38.54101562 96.3203125 C36.69534551 96.88459381 34.84784504 97.44288216 33 98 C32.71390869 97.46221924 32.42781738 96.92443848 32.13305664 96.37036133 C24.47859508 82.04708957 16.82305814 68.52324097 5.453125 56.77929688 C2 53.19259827 2 53.19259827 2 51 C1.13955078 50.61908203 1.13955078 50.61908203 0.26171875 50.23046875 C-2.26050624 48.85827381 -4.08313729 47.26353938 -6.1875 45.3125 C-9.97669625 41.85524987 -13.8978228 38.74046131 -18.0546875 35.73828125 C-22.13220972 32.0947122 -23.49059992 28.41247912 -23.97583008 22.97119141 C-24.33920743 13.6584953 -24.33920743 13.6584953 -21.69335938 10.38183594 C-17.87577204 7.159756 -13.49781686 5.10788777 -9 3 C-7.66001953 2.14535156 -7.66001953 2.14535156 -6.29296875 1.2734375 C-4 0 -4 0 0 0 Z " fill="#E8DED9" transform="translate(390,300)"/>
<path d="M0 0 C2.15515137 1.44458008 2.15515137 1.44458008 4 4 C4.59972645 7.12534903 4.54627291 10.2124112 4.51757812 13.38671875 C4.52809204 14.81173203 4.52809204 14.81173203 4.53881836 16.26553345 C4.55642662 19.40648611 4.54476528 22.54653814 4.53125 25.6875 C4.53394409 27.86938653 4.53782582 30.05127188 4.54284668 32.2331543 C4.54874558 36.80626861 4.54016592 41.37907044 4.52148438 45.95214844 C4.4986949 51.8169797 4.51181584 57.68107879 4.53577423 63.54588318 C4.55022144 68.05144782 4.5456311 72.5568386 4.53526306 77.06240845 C4.53259281 79.22498664 4.53587597 81.38758056 4.54518127 83.55014038 C4.55532887 86.5716133 4.53987025 89.59189701 4.51757812 92.61328125 C4.52567505 93.50898834 4.53377197 94.40469543 4.54211426 95.32754517 C4.45952206 101.36348608 4.45952206 101.36348608 2.15515137 104.55541992 C-0.80117685 106.5370222 -2.51128576 106.58145237 -6 106 C-8.15515137 104.55541992 -8.15515137 104.55541992 -10 102 C-10.59972645 98.87465097 -10.54627291 95.7875888 -10.51757812 92.61328125 C-10.5245874 91.6632724 -10.53159668 90.71326355 -10.53881836 89.73446655 C-10.55642662 86.59351389 -10.54476528 83.45346186 -10.53125 80.3125 C-10.53394409 78.13061347 -10.53782582 75.94872812 -10.54284668 73.7668457 C-10.54874558 69.19373139 -10.54016592 64.62092956 -10.52148438 60.04785156 C-10.4986949 54.1830203 -10.51181584 48.31892121 -10.53577423 42.45411682 C-10.55022144 37.94855218 -10.5456311 33.4431614 -10.53526306 28.93759155 C-10.53259281 26.77501336 -10.53587597 24.61241944 -10.54518127 22.44985962 C-10.55532887 19.4283867 -10.53987025 16.40810299 -10.51757812 13.38671875 C-10.52567505 12.49101166 -10.53377197 11.59530457 -10.54211426 10.67245483 C-10.45952206 4.63651392 -10.45952206 4.63651392 -8.15515137 1.44458008 C-5.19882315 -0.5370222 -3.48871424 -0.58145237 0 0 Z " fill="#000000" transform="translate(259,174)"/>
<path d="M0 0 C3.0503604 1.29725277 4.30488138 3.68845252 6.15649414 6.37329102 C6.86290039 7.38520508 7.56930664 8.39711914 8.29711914 9.43969727 C9.09375977 10.61338867 9.09375977 10.61338867 9.90649414 11.81079102 C5.42865144 16.72314136 -0.11625204 20.37978381 -5.49780273 24.2253418 C-9.42831596 27.04847182 -13.22511112 29.83041126 -16.73022461 33.17407227 C-25.87073155 41.56366686 -34.03447308 41.78455333 -46.25561523 41.37280273 C-49.20595117 41.22328684 -52.14843858 41.0402476 -55.09350586 40.81079102 C-50.99126634 36.42367375 -46.45877868 33.00204913 -41.59350586 29.49829102 C-32.56507229 22.92507431 -23.66963437 16.19061299 -14.80053711 9.40454102 C-14.00856934 8.80383789 -13.21660156 8.20313477 -12.40063477 7.58422852 C-10.86459438 6.40350922 -9.34566885 5.20017926 -7.8449707 3.97485352 C-7.14710449 3.41540039 -6.44923828 2.85594727 -5.73022461 2.27954102 C-5.12267334 1.77874023 -4.51512207 1.27793945 -3.88916016 0.76196289 C-2.09350586 -0.18920898 -2.09350586 -0.18920898 0 0 Z " fill="#746B76" transform="translate(246.093505859375,456.189208984375)"/>
<path d="M0 0 C16.66498733 0.29758906 32.97682948 11.27975655 44.2878418 22.74853516 C54.97503073 34.07910538 63.19540496 48.1762975 64 64 C58.93959451 63.36111113 54.71988466 61.13720723 50.1875 58.9375 C49.39923828 58.56044922 48.61097656 58.18339844 47.79882812 57.79492188 C45.86347527 56.86829839 43.93140451 55.93482533 42 55 C42.66 54.67 43.32 54.34 44 54 C34.30069203 30.76883075 22.76082965 13.13910915 0 1 C0 0.67 0 0.34 0 0 Z " fill="#C5BBB6" transform="translate(278,91)"/>
<path d="M0 0 C4.09768226 0.58538318 4.99263638 1.30462455 7.5 4.5 C7.99447632 7.04211426 7.99447632 7.04211426 7.98583984 9.93945312 C7.9919931 11.02738159 7.99814636 12.11531006 8.00448608 13.23620605 C7.99011505 14.40607056 7.97574402 15.57593506 7.9609375 16.78125 C7.96002106 17.98688599 7.95910461 19.19252197 7.9581604 20.43469238 C7.95211925 22.98335711 7.93635808 25.53201457 7.91162109 28.08056641 C7.87514047 31.98496623 7.87060156 35.88841639 7.87109375 39.79296875 C7.86126172 42.26823738 7.84960435 44.74349957 7.8359375 47.21875 C7.83371185 48.3886145 7.83148621 49.558479 7.82919312 50.76379395 C7.81643341 51.85172241 7.80367371 52.93965088 7.79052734 54.06054688 C7.78290375 55.0166687 7.77528015 55.97279053 7.76742554 56.95788574 C7.48714412 59.62220641 6.94242484 61.25521168 5.5 63.5 C2.45016004 65.02491998 -0.1423369 64.73562548 -3.5 64.5 C-5.60358381 62.95737187 -6.34054159 61.81891683 -7.5 59.5 C-7.61093596 57.76507423 -7.65918641 56.0259753 -7.67700195 54.28759766 C-7.68983719 53.19951813 -7.70267242 52.1114386 -7.71589661 50.99038696 C-7.72328354 49.81019989 -7.73067047 48.63001282 -7.73828125 47.4140625 C-7.75038887 45.60136368 -7.75038887 45.60136368 -7.76274109 43.75204468 C-7.77658995 41.19148192 -7.7873085 38.63090065 -7.79516602 36.0703125 C-7.81239858 32.14808372 -7.85628161 28.22669326 -7.90039062 24.3046875 C-7.91051541 21.82031871 -7.91903218 19.33594275 -7.92578125 16.8515625 C-7.94328934 15.67542389 -7.96079742 14.49928528 -7.97883606 13.2875061 C-7.97444771 11.64593033 -7.97444771 11.64593033 -7.9699707 9.97119141 C-7.97583694 9.00903717 -7.98170319 8.04688293 -7.98774719 7.05557251 C-7.08213474 2.31057688 -4.61664443 0.65952063 0 0 Z " fill="#010101" transform="translate(289.5,194.5)"/>
<path d="M0 0 C4.09768226 0.58538318 4.99263638 1.30462455 7.5 4.5 C7.99447632 7.04211426 7.99447632 7.04211426 7.98583984 9.93945312 C7.9919931 11.02738159 7.99814636 12.11531006 8.00448608 13.23620605 C7.99011505 14.40607056 7.97574402 15.57593506 7.9609375 16.78125 C7.96002106 17.98688599 7.95910461 19.19252197 7.9581604 20.43469238 C7.95211925 22.98335711 7.93635808 25.53201457 7.91162109 28.08056641 C7.87514047 31.98496623 7.87060156 35.88841639 7.87109375 39.79296875 C7.86126172 42.26823738 7.84960435 44.74349957 7.8359375 47.21875 C7.83371185 48.3886145 7.83148621 49.558479 7.82919312 50.76379395 C7.81643341 51.85172241 7.80367371 52.93965088 7.79052734 54.06054688 C7.78290375 55.0166687 7.77528015 55.97279053 7.76742554 56.95788574 C7.48714412 59.62220641 6.94242484 61.25521168 5.5 63.5 C2.45016004 65.02491998 -0.1423369 64.73562548 -3.5 64.5 C-5.60358381 62.95737187 -6.34054159 61.81891683 -7.5 59.5 C-7.61093596 57.76507423 -7.65918641 56.0259753 -7.67700195 54.28759766 C-7.68983719 53.19951813 -7.70267242 52.1114386 -7.71589661 50.99038696 C-7.72328354 49.81019989 -7.73067047 48.63001282 -7.73828125 47.4140625 C-7.75038887 45.60136368 -7.75038887 45.60136368 -7.76274109 43.75204468 C-7.77658995 41.19148192 -7.7873085 38.63090065 -7.79516602 36.0703125 C-7.81239858 32.14808372 -7.85628161 28.22669326 -7.90039062 24.3046875 C-7.91051541 21.82031871 -7.91903218 19.33594275 -7.92578125 16.8515625 C-7.94328934 15.67542389 -7.96079742 14.49928528 -7.97883606 13.2875061 C-7.97444771 11.64593033 -7.97444771 11.64593033 -7.9699707 9.97119141 C-7.97583694 9.00903717 -7.98170319 8.04688293 -7.98774719 7.05557251 C-7.08213474 2.31057688 -4.61664443 0.65952063 0 0 Z " fill="#010101" transform="translate(222.5,194.5)"/>
<path d="M0 0 C1.53601701 1.86136481 2.85612658 3.68493377 4.1875 5.6875 C8.69005875 12.23022661 13.41792016 18.57202151 18.25 24.875 C22.2649838 30.1163439 22.2649838 30.1163439 24.16210938 32.61230469 C25.37054691 34.18224612 26.60065368 35.73578493 27.85351562 37.27050781 C28.41232422 37.96756836 28.97113281 38.66462891 29.546875 39.3828125 C30.29469238 40.28990967 30.29469238 40.28990967 31.05761719 41.21533203 C32 43 32 43 31.79614258 45.09228516 C30.57270723 48.02387787 28.43749595 49.3512689 25.9375 51.25 C25.01839844 51.95640625 24.09929687 52.6628125 23.15234375 53.390625 C22.44207031 53.92171875 21.73179687 54.4528125 21 55 C16.15265663 50.49018925 12.28997831 45.33947596 8.3125 40.0625 C7.60641602 39.13115234 6.90033203 38.19980469 6.17285156 37.24023438 C1.34013799 30.84224263 -3.38215915 24.37789884 -7.984375 17.8125 C-9.34733251 15.91069883 -10.77785972 14.05583924 -12.265625 12.25 C-14 10 -14 10 -14 8 C-11.69921875 6.0546875 -11.69921875 6.0546875 -8.6875 3.875 C-7.70136719 3.15054687 -6.71523437 2.42609375 -5.69921875 1.6796875 C-3 0 -3 0 0 0 Z " fill="#EED19B" transform="translate(260,421)"/>
<path d="M0 0 C0.84375 1.61962891 0.84375 1.61962891 1.5 3.7265625 C1.7460498 4.50443115 1.99209961 5.2822998 2.24560547 6.08374023 C2.61903076 7.34166382 2.61903076 7.34166382 3 8.625 C3.26055176 9.47715088 3.52110352 10.32930176 3.78955078 11.20727539 C6.371566 19.86162847 9 28.9240327 9 38 C7.91460937 38.13277344 6.82921875 38.26554687 5.7109375 38.40234375 C4.26561678 38.58066254 2.82030474 38.75905169 1.375 38.9375 C0.30572266 39.06801758 0.30572266 39.06801758 -0.78515625 39.20117188 C-4.87591961 39.70782605 -8.93842635 40.2889043 -13 41 C-14.23697917 34.81510417 -15.47395833 28.63020833 -16.7109375 22.4453125 C-17.03916504 20.82157715 -17.03916504 20.82157715 -17.37402344 19.16503906 C-17.78086111 17.10800179 -18.17052471 15.04746685 -18.54003906 12.98339844 C-18.7047168 12.07879883 -18.86939453 11.17419922 -19.0390625 10.2421875 C-19.24716553 9.04505127 -19.24716553 9.04505127 -19.45947266 7.82373047 C-19.63784668 7.22189941 -19.8162207 6.62006836 -20 6 C-20.66 5.67 -21.32 5.34 -22 5 C-19.77236012 4.18309823 -17.5430514 3.37138128 -15.3125 2.5625 C-14.68666016 2.33240234 -14.06082031 2.10230469 -13.41601562 1.86523438 C-4.29230135 -1.43076712 -4.29230135 -1.43076712 0 0 Z " fill="#E6DCD7" transform="translate(449,407)"/>
<path d="M0 0 C21.73906728 -0.59969841 44.20466383 7.5317115 63 18 C63 18.99 63 19.98 63 21 C53.03451025 21.29345136 43.11700357 20.52231307 33.18310547 19.828125 C30.24365735 19.62456076 27.30357184 19.43314726 24.36328125 19.2421875 C22.47651159 19.112719 20.58979082 18.98253556 18.703125 18.8515625 C17.83318909 18.79626373 16.96325317 18.74096497 16.06695557 18.68399048 C3.7924695 17.7924695 3.7924695 17.7924695 0 14 C-0.1953125 10.7421875 -0.1953125 10.7421875 -0.125 6.875 C-0.10695312 5.59367187 -0.08890625 4.31234375 -0.0703125 2.9921875 C-0.04710937 2.00476563 -0.02390625 1.01734375 0 0 Z " fill="#F0ECEA" transform="translate(52,460)"/>
<path d="M0 0 C0.10794277 2.26979665 0.18556176 4.54105196 0.25 6.8125 C0.29640625 8.07707031 0.3428125 9.34164063 0.390625 10.64453125 C0 14 0 14 -1.65771484 15.66625977 C-4.52083707 17.2965742 -6.58455012 17.49865207 -9.8671875 17.6953125 C-11.56681641 17.80939453 -11.56681641 17.80939453 -13.30078125 17.92578125 C-14.48027344 17.99152344 -15.65976562 18.05726563 -16.875 18.125 C-19.20587307 18.27116036 -21.53660913 18.41952593 -23.8671875 18.5703125 C-24.89956543 18.62977051 -25.93194336 18.68922852 -26.99560547 18.75048828 C-30.00634965 18.95730885 -30.00634965 18.95730885 -32.97753906 19.50708008 C-36.1737565 20.02833719 -39.25634855 20.20854495 -42.4921875 20.31640625 C-43.69101562 20.35830078 -44.88984375 20.40019531 -46.125 20.44335938 C-47.3625 20.48267578 -48.6 20.52199219 -49.875 20.5625 C-51.13570313 20.60568359 -52.39640625 20.64886719 -53.6953125 20.69335938 C-56.79677423 20.79909102 -59.89831145 20.90118571 -63 21 C-63.33 20.01 -63.66 19.02 -64 18 C-43.58436015 8.4581448 -22.93027979 -0.13665244 0 0 Z " fill="#F0ECEA" transform="translate(460,460)"/>
<path d="M0 0 C4.29 0.66 8.58 1.32 13 2 C7.33607003 16.15982492 -3.38073011 25.89697519 -17.1171875 32.00390625 C-20 33 -20 33 -24 33 C-26.1484375 30.76953125 -26.1484375 30.76953125 -28.375 27.8125 C-31.65904178 23.59481328 -34.78193011 20.24466915 -39 17 C-39 16.67 -39 16.34 -39 16 C-37.97261719 15.82984375 -36.94523437 15.6596875 -35.88671875 15.484375 C-23.46715317 13.34804735 -11.54246262 10.29413926 -1 3 C-0.67 2.01 -0.34 1.02 0 0 Z " fill="#CD5F5F" transform="translate(363,79)"/>
<path d="M0 0 C3.09375 -0.04125 6.1875 -0.0825 9.375 -0.125 C10.83558838 -0.15231201 10.83558838 -0.15231201 12.32568359 -0.18017578 C13.09219238 -0.1851709 13.85870117 -0.19016602 14.6484375 -0.1953125 C15.82672119 -0.21102295 15.82672119 -0.21102295 17.02880859 -0.22705078 C19 0 19 0 21 2 C21.25878906 4.765625 21.25878906 4.765625 21.265625 8.25 C21.26949219 10.12171875 21.26949219 10.12171875 21.2734375 12.03125 C21.26570313 13.3409375 21.25796875 14.650625 21.25 16 C21.25773437 17.3096875 21.26546875 18.619375 21.2734375 19.96875 C21.27085937 21.2165625 21.26828125 22.464375 21.265625 23.75 C21.26336914 24.89984375 21.26111328 26.0496875 21.25878906 27.234375 C21 30 21 30 19 32 C17.02880859 32.22705078 17.02880859 32.22705078 14.6484375 32.1953125 C13.49867432 32.18781982 13.49867432 32.18781982 12.32568359 32.18017578 C11.35195801 32.16196777 10.37823242 32.14375977 9.375 32.125 C6.28125 32.08375 3.1875 32.0425 0 32 C0 21.44 0 10.88 0 0 Z " fill="#D5CCC7" transform="translate(368,210)"/>
<path d="M0 0 C0.78552246 0.01047363 1.57104492 0.02094727 2.38037109 0.03173828 C3.14687988 0.0367334 3.91338867 0.04172852 4.703125 0.046875 C5.67685059 0.06508301 6.65057617 0.08329102 7.65380859 0.10205078 C10.74755859 0.14330078 13.84130859 0.18455078 17.02880859 0.22705078 C17.02880859 10.78705078 17.02880859 21.34705078 17.02880859 32.22705078 C13.93505859 32.26830078 10.84130859 32.30955078 7.65380859 32.35205078 C6.68008301 32.37025879 5.70635742 32.3884668 4.703125 32.40722656 C3.93661621 32.41222168 3.17010742 32.4172168 2.38037109 32.42236328 C1.2020874 32.43807373 1.2020874 32.43807373 0 32.45410156 C-1.97119141 32.22705078 -1.97119141 32.22705078 -3.97119141 30.22705078 C-4.22998047 27.46142578 -4.22998047 27.46142578 -4.23681641 23.97705078 C-4.23939453 22.72923828 -4.24197266 21.48142578 -4.24462891 20.19580078 C-4.23689453 18.88611328 -4.22916016 17.57642578 -4.22119141 16.22705078 C-4.22892578 14.91736328 -4.23666016 13.60767578 -4.24462891 12.25830078 C-4.24205078 11.01048828 -4.23947266 9.76267578 -4.23681641 8.47705078 C-4.23456055 7.32720703 -4.23230469 6.17736328 -4.22998047 4.99267578 C-3.92746626 1.7597692 -3.38697322 0.39012696 0 0 Z " fill="#D5CCC7" transform="translate(126.97119140625,209.77294921875)"/>
<path d="M0 0 C2.89943603 1.33182886 5.16877099 2.8329463 7.5625 4.9375 C8.14128906 5.44152344 8.72007812 5.94554687 9.31640625 6.46484375 C10.92684559 7.9332954 12.46434006 9.45412562 14 11 C10.66705871 13.54218108 7.3335749 16.08364984 4 18.625 C2.59814453 19.69427734 2.59814453 19.69427734 1.16796875 20.78515625 C-0.68067731 22.19426408 -2.53220557 23.59959938 -4.38671875 25.00097656 C-6.05359742 26.27605154 -7.70416322 27.57294353 -9.33203125 28.89746094 C-10.02683594 29.4546582 -10.72164063 30.01185547 -11.4375 30.5859375 C-12.03433594 31.07884277 -12.63117188 31.57174805 -13.24609375 32.07958984 C-15 33 -15 33 -17.08666992 32.78710938 C-19.9965499 31.5900374 -21.37714342 29.56630903 -23.3125 27.125 C-24.38951172 25.79855469 -24.38951172 25.79855469 -25.48828125 24.4453125 C-25.98714844 23.63835937 -26.48601562 22.83140625 -27 22 C-25.6631744 17.98952321 -23.04025666 16.65579285 -19.6875 14.375 C-18.41707395 13.4908677 -17.14756038 12.60542297 -15.87890625 11.71875 C-15.23453613 11.27015625 -14.59016602 10.8215625 -13.92626953 10.359375 C-10.94760886 8.25732397 -8.03359662 6.07252748 -5.125 3.875 C-4.13757813 3.12992187 -3.15015625 2.38484375 -2.1328125 1.6171875 C-1.42898438 1.08351563 -0.72515625 0.54984375 0 0 Z " fill="#736A75" transform="translate(310,407)"/>
<path d="M0 0 C4.4948145 1.41503419 4.4948145 1.41503419 6.375 4.0625 C6.77905273 7.09350586 6.77905273 7.09350586 6.80859375 10.77734375 C6.8138356 11.42949356 6.81907745 12.08164337 6.82447815 12.7535553 C6.83089347 14.13118061 6.82956757 15.50886073 6.82104492 16.88647461 C6.81254137 18.98976701 6.84128361 21.09033583 6.87304688 23.19335938 C6.87465929 24.53385336 6.87408059 25.87435213 6.87109375 27.21484375 C6.87294678 28.43163818 6.8747998 29.64843262 6.87670898 30.90209961 C6.28238344 34.64591671 5.37536618 35.8169044 2.375 38.0625 C-0.5625 38.6875 -0.5625 38.6875 -3.625 38.0625 C-6.94894167 35.27215132 -8.37361748 33.54273618 -9.10620117 29.22900391 C-9.2988816 25.8266123 -9.3066604 22.46967848 -9.25 19.0625 C-9.26933594 17.89976562 -9.28867187 16.73703125 -9.30859375 15.5390625 C-9.25440294 6.06650944 -9.25440294 6.06650944 -6.3125 2.25390625 C-3.625 0.0625 -3.625 0.0625 0 0 Z " fill="#080808" transform="translate(323.625,207.9375)"/>
<path d="M0 0 C4.19376515 1.27310728 5.15101169 2.43373765 7.5 6.0625 C8.29912015 10.34556456 8.10319631 14.65028298 8.0625 19 C8.08634766 20.16724609 8.11019531 21.33449219 8.13476562 22.53710938 C8.11844606 32.08405314 8.11844606 32.08405314 5.15625 35.83984375 C2.5 38.0625 2.5 38.0625 -0.5625 38.6875 C-4.20093734 37.9133644 -5.23414313 36.98634065 -7.5 34.0625 C-8.01757812 30.91796875 -8.01757812 30.91796875 -8.03125 27.25 C-8.0350769 26.59926514 -8.03890381 25.94853027 -8.04284668 25.27807617 C-8.04556076 23.90639696 -8.03823453 22.53466556 -8.02148438 21.16308594 C-8.00006119 19.06848315 -8.02129637 16.97730916 -8.046875 14.8828125 C-8.04423163 13.54686746 -8.03910643 12.21092455 -8.03125 10.875 C-8.02673828 9.66457031 -8.02222656 8.45414063 -8.01757812 7.20703125 C-7.1746864 2.08606645 -5.18355271 0.09256344 0 0 Z " fill="#080808" transform="translate(189.5,207.9375)"/>
<path d="M0 0 C3.46569366 1.24241848 5.39160871 2.21942249 7.65625 5.125 C9.35047679 8.74985732 9.33206448 11.90840604 9.1875 15.8125 C9.0946875 19.3703125 9.0946875 19.3703125 9 23 C1.08 23 -6.84 23 -15 23 C-15.0825 20.64875 -15.165 18.2975 -15.25 15.875 C-15.28641602 15.14651855 -15.32283203 14.41803711 -15.36035156 13.66748047 C-15.44556673 8.59992683 -14.18811533 5.86472973 -11 2 C-7.2727104 -0.48485973 -4.31580629 -0.52312804 0 0 Z " fill="#625B64" transform="translate(259,52)"/>
<path d="M0 0 C0.10794277 2.26979665 0.18556176 4.54105196 0.25 6.8125 C0.29640625 8.07707031 0.3428125 9.34164063 0.390625 10.64453125 C0 14 0 14 -1.46875 15.90625 C-5.18806583 17.51336178 -8.73494867 17.57097695 -12.75 17.6875 C-13.54277344 17.72166016 -14.33554687 17.75582031 -15.15234375 17.79101562 C-17.10107504 17.87319104 -19.05051362 17.93828045 -21 18 C-21 13.38 -21 8.76 -21 4 C-22.32 3.67 -23.64 3.34 -25 3 C-22.14694871 2.49279088 -19.29283186 1.99406366 -16.4375 1.5 C-15.63763672 1.35691406 -14.83777344 1.21382813 -14.01367188 1.06640625 C-9.26475402 0.25230605 -4.81753923 -0.15519589 0 0 Z " fill="#E9DFDA" transform="translate(460,460)"/>
<path d="M0 0 C0.33 0 0.66 0 1 0 C1.165 0.825 1.33 1.65 1.5 2.5 C4.86090369 10.34210861 11.37522319 14.73223851 19 18 C19.33 15.03 19.66 12.06 20 9 C20.33 9 20.66 9 21 9 C21 13.95 21 18.9 21 24 C9.375 27 9.375 27 6 27 C5.18395001 25.0848421 4.37229368 23.16781166 3.5625 21.25 C3.11003906 20.18265625 2.65757812 19.1153125 2.19140625 18.015625 C0.41546527 13.52045636 -0.12017921 10.09505362 -0.0625 5.25 C-0.05347656 4.26515625 -0.04445312 3.2803125 -0.03515625 2.265625 C-0.02355469 1.51796875 -0.01195312 0.7703125 0 0 Z " fill="#C95E5E" transform="translate(208,53)"/>
</svg>
